<svg width="42" height="62" viewBox="0 0 42 62" fill="none" xmlns="http://www.w3.org/2000/svg">
<path d="M23.543 25.6523C23.4727 26.7539 23.4082 27.8438 23.3496 28.9219C23.291 30 23.2148 31.0898 23.1211 32.1914L15.668 32.5781V34.793H22.1367L21.7852 40.2422L15.6328 40.418L15.668 50.8242L6.77344 51L7.33594 25.6523H23.543ZM40.4419 40.9805L39.7036 48.7852L24.9028 49.9453C24.9731 45.8555 25.0493 41.7891 25.1313 37.7461C25.2251 33.7031 25.3364 29.6367 25.4653 25.5469H34.6059C34.3364 28.1133 34.0786 30.6797 33.8325 33.2461C33.5864 35.8008 33.4106 38.3789 33.3052 40.9805C33.8559 41.0039 34.4009 41.0156 34.9399 41.0156C35.479 41.0156 36.0239 41.0156 36.5747 41.0156C37.2309 41.0156 37.8755 41.0098 38.5083 40.998C39.1411 40.9863 39.7856 40.9805 40.4419 40.9805Z" fill="#2448CA"/>
<path d="M9.07571 17.6728C8.39321 17.6703 7.81806 18.2369 7.82808 18.9019L7.78202 22.9967C7.75704 23.6616 8.3194 24.2324 9.0019 24.235L12.213 24.2557L12.2869 17.6936M33.4319 24.3265L36.75 21.0577L33.5057 17.7644L14.1419 17.7006L14.068 24.2627L33.4319 24.3265Z" fill="#2448CA"/>
<path d="M23.5333 45C22.5474 45.0036 21.8144 45.12 21.284 45.3211C20.8882 45.4711 20.7333 45.5846 20.7333 45.9691L20.7333 50C21.3396 49.5312 21.8775 49.4 24 49.4L24 45L23.5333 45ZM17.4667 45C18.4526 45.0036 19.1856 45.12 19.716 45.3211C20.1118 45.4711 20.2667 45.5846 20.2667 45.9691L20.2667 50C19.6604 49.5312 19.1225 49.4 17 49.4L17 45L17.4667 45Z" fill="#2448CA"/>
</svg>
